700 0 1 0           
30 Autodesk Translation Framework 20 ASM 225.7.0.65535 NT 24 Fri Nov 15 05:12:08 2019 
1 9.999999999999999547e-07 1.000000000000000036e-10 
body $1 -1 $-1 $2 $-1 $3 #
rgb_color-st-attrib $-1 -1 $4 $-1 $0 0.627450980392156854 0.627450980392156854 0.627450980392156854 #
lump $-1 -1 $-1 $-1 $5 $0 #
transform $-1 -1 1 0 0 0 1 0 0 0 1 0 0 0 1 no_rotate no_reflect no_shear #
ATTRIB_CUSTOM-attrib $-1 -1 $-1 $1 $0 @20 Timestamp_attrib_def 1 1573788438982436 #
shell $-1 -1 $-1 $-1 $-1 $6 $-1 $2 #
face $7 -1 $-1 $8 $9 $5 $-1 $10 forward single #
DXID-attrib $-1 -1 $-1 $-1 $6 @10 ASM ENTITY @1 0 #
face $11 -1 $-1 $12 $13 $5 $-1 $14 forward single #
loop $-1 -1 $-1 $-1 $15 $6 #
plane-surface $-1 -1 $-1 -141.206358422442662 -225.4781808857782153 0 0 0 1 9.779403720016146551 -2.088842473939661826 0 forward_v I I I I #
DXID-attrib $-1 -1 $-1 $-1 $8 @10 ASM ENTITY @1 1 #
face $16 -1 $-1 $17 $18 $5 $-1 $19 forward single #
loop $-1 -1 $-1 $-1 $20 $8 #
plane-surface $-1 -1 $-1 -141.206358422442662 -225.4781808857782437 -60 -0.9779403720016148771 0.2088842473939654665 4.437342591868191405e-31 1.236843205004152576e-15 5.790570227768978e-15 10 forward_v I I I I #
coedge $-1 -1 $-1 $21 $22 $23 $24 forward $9 $-1 #
DXID-attrib $-1 -1 $-1 $-1 $12 @10 ASM ENTITY @1 2 #
face $25 -1 $-1 $26 $27 $5 $-1 $28 reversed single #
loop $-1 -1 $-1 $-1 $29 $12 #
plane-surface $-1 -1 $-1 -141.206358422442662 -225.4781808857783858 -60 -0.2088842473939646616 -0.9779403720016149881 -7.663350976776343357e-46 9.779403720016148327 -2.088842473939646283 -8.87468518373638141e-30 reverse_v I I I I #
coedge $30 -1 $-1 $31 $32 $33 $34 reversed $13 $-1 #
coedge $-1 -1 $-1 $35 $15 $36 $37 reversed $9 $-1 #
coedge $38 -1 $-1 $15 $35 $39 $40 reversed $9 $-1 #
coedge $-1 -1 $-1 $41 $42 $15 $24 reversed $27 $-1 #
edge $-1 -1 $-1 $43 -3.845395098162632336e-15 $44 1.999999999999994671 $15 $45 forward @7 unknown #
DXID-attrib $-1 -1 $-1 $-1 $17 @10 ASM ENTITY @1 3 #
face $46 -1 $-1 $47 $48 $5 $-1 $49 forward single #
loop $-1 -1 $-1 $-1 $41 $17 #
cone-surface $-1 -1 $-1 -52.22106184849154431 -244.4850930004035661 -1.961817850054743899e-43 -0.2088842473939646061 -0.9779403720016149881 5.921189464667507137e-16 -24.44850930004037437 5.222106184849114818 2.284409704702512979e-29 1 I I -0 1 25 reversed I I I I #
coedge $50 -1 $-1 $51 $52 $53 $54 reversed $18 $-1 #
ATTRIB_CUSTOM-attrib $-1 -1 $-1 $-1 $20 @17 sketch_attrib_def 1 1 2 207 0 0 1 1 0 #
coedge $-1 -1 $-1 $55 $20 $35 $56 forward $13 $-1 #
coedge $-1 -1 $-1 $20 $55 $57 $58 reversed $13 $-1 #
coedge $59 -1 $-1 $60 $39 $20 $34 forward $18 $-1 #
edge $-1 -1 $-1 $61 0 $62 6 $33 $63 forward @7 unknown #
coedge $-1 -1 $-1 $22 $21 $31 $56 reversed $9 $-1 #
coedge $-1 -1 $-1 $64 $65 $21 $37 forward $48 $-1 #
edge $-1 -1 $-1 $66 -9.099255856655055652 $44 -2.499999999999999556 $21 $67 forward @7 unknown #
ATTRIB_CUSTOM-attrib $-1 -1 $-1 $-1 $22 @17 sketch_attrib_def 1 1 2 206 0 0 1 1 0 #
coedge $68 -1 $-1 $33 $69 $22 $40 forward $18 $-1 #
edge $-1 -1 $-1 $43 2.500000000000000444 $61 9.099255856655055652 $39 $70 forward @7 unknown #
coedge $71 -1 $-1 $72 $23 $69 $73 forward $27 $-1 #
coedge $-1 -1 $-1 $23 $72 $64 $74 reversed $27 $-1 #
vertex $-1 -1 $-1 $24 $75 #
vertex $-1 -1 $-1 $24 $76 #
straight-curve $-1 -1 $-1 -76.6695711485318725 -239.262986815554342 8.758115402030106693e-46 2.08884247393966227 9.779403720016146551 -5.921189464667507334e-15 I I #
DXID-attrib $-1 -1 $-1 $-1 $26 @10 ASM ENTITY @1 4 #
face $77 -1 $-1 $78 $79 $5 $-1 $80 forward single #
loop $-1 -1 $-1 $-1 $64 $26 #
plane-surface $-1 -1 $-1 -3.550728613636646713 -234.4297416176838738 -30 0.2088842473939654387 0.9779403720016148771 8.758115402030106693e-47 8.678912929980374885e-30 -1.853781935463150026e-30 10 reverse_v I I I I #
ATTRIB_CUSTOM-attrib $-1 -1 $-1 $-1 $29 @17 sketch_attrib_def 1 1 2 207 0 0 1 1 0 #
coedge $81 -1 $-1 $69 $29 $82 $83 reversed $18 $-1 #
coedge $-1 -1 $-1 $29 $84 $85 $86 reversed $18 $-1 #
coedge $87 -1 $-1 $88 $89 $29 $54 forward $90 $-1 #
edge $-1 -1 $-1 $91 0 $92 6 $29 $93 forward @7 unknown #
coedge $-1 -1 $-1 $32 $31 $65 $94 reversed $13 $-1 #
edge $-1 -1 $-1 $61 0 $66 2.000000000000001776 $31 $95 forward @7 unknown #
coedge $-1 -1 $-1 $96 $97 $32 $58 forward $98 $-1 #
edge $-1 -1 $-1 $62 -12.50000000000000533 $99 -10.49999999999999112 $57 $100 forward @7 unknown #
ATTRIB_CUSTOM-attrib $-1 -1 $-1 $-1 $33 @17 sketch_attrib_def 1 1 2 207 0 0 1 1 0 #
coedge $-1 -1 $-1 $84 $33 $101 $102 forward $18 $-1 #
vertex $-1 -1 $-1 $56 $103 #
vertex $-1 -1 $-1 $34 $104 #
straight-curve $-1 -1 $-1 -141.206358422442662 -225.4781808857782153 0 -1.236843205004152576e-15 -5.790570227768978e-15 -10 F 0 F 6 #
coedge $-1 -1 $-1 $105 $36 $42 $74 forward $48 $-1 #
coedge $-1 -1 $-1 $36 $106 $55 $94 forward $48 $-1 #
vertex $-1 -1 $-1 $37 $107 #
straight-curve $-1 -1 $-1 -48.04337690061218069 -224.9262855603711841 0 9.779403720016148327 -2.08884247393966227 0 I I #
ATTRIB_CUSTOM-attrib $-1 -1 $-1 $-1 $39 @17 sketch_attrib_def 1 1 2 206 0 0 1 1 0 #
coedge $-1 -1 $-1 $39 $51 $41 $73 reversed $18 $-1 #
straight-curve $-1 -1 $-1 -52.22106184849151589 -244.4850930004034808 0 -9.779403720016146551 2.088842473939661826 0 F 0 F 9.099255856655055652 #
ATTRIB_CUSTOM-attrib $-1 -1 $-1 $-1 $41 @17 sketch_attrib_def 1 1 2 231 0 0 2 2 0 #
coedge $-1 -1 $-1 $42 $41 $108 $109 forward $27 $-1 #
edge $-1 -1 $-1 $43 1.776356839400250465e-15 $110 3.141592653589793116 $69 $111 forward @7 unknown #
edge $-1 -1 $-1 $44 -3.141592653589793116 $112 -1.332267629550187849e-15 $64 $113 forward @7 unknown #
point $-1 -1 $-1 -76.66957114853188671 -239.2629868155543704 3.061616997868383043e-15 #
point $-1 -1 $-1 -72.49188620065255861 -219.7041793755221022 -8.780761931466623342e-15 #
DXID-attrib $-1 -1 $-1 $-1 $47 @10 ASM ENTITY @1 5 #
face $114 -1 $-1 $115 $90 $5 $-1 $116 forward single #
loop $-1 -1 $-1 $-1 $108 $47 #
plane-surface $-1 -1 $-1 36.76423472545964444 -263.4920051150287463 -8.075303113408330791e-29 8.678912929980375236e-31 -1.853781935463150157e-31 1 -9.779403720016148327 2.088842473939646283 8.87468518373638141e-30 reverse_v I I I I #
ATTRIB_CUSTOM-attrib $-1 -1 $-1 $-1 $51 @17 sketch_attrib_def 1 1 2 206 0 0 1 1 0 #
coedge $117 -1 $-1 $118 $108 $51 $83 forward $79 $-1 #
edge $-1 -1 $-1 $110 2.500000000000000444 $91 9.099255856655055652 $51 $119 forward @7 unknown #
coedge $-1 -1 $-1 $52 $60 $120 $121 forward $18 $-1 #
coedge $-1 -1 $-1 $122 $123 $52 $86 forward $124 $-1 #
edge $-1 -1 $-1 $92 0 $125 4 $52 $126 forward @7 unknown #
ATTRIB_CUSTOM-attrib $-1 -1 $-1 $-1 $53 @17 sketch_attrib_def 1 1 2 207 0 0 1 1 0 #
coedge $-1 -1 $-1 $127 $53 $128 $129 forward $90 $-1 #
coedge $-1 -1 $-1 $53 $127 $118 $130 reversed $90 $-1 #
loop $-1 -1 $-1 $-1 $53 $78 #
vertex $-1 -1 $-1 $54 $131 #
vertex $-1 -1 $-1 $54 $132 #
straight-curve $-1 -1 $-1 36.76423472545964444 -263.4920051150287463 -8.075303113408330791e-29 -1.236843205004151984e-15 -5.790570227768978e-15 -10 F 0 F 6 #
edge $-1 -1 $-1 $99 -6 $66 -0 $55 $133 forward @7 unknown #
straight-curve $-1 -1 $-1 -141.206358422442662 -225.4781808857782153 0 2.08884247393965472 9.779403720016148327 0 I I #
coedge $-1 -1 $-1 $128 $57 $106 $134 forward $98 $-1 #
coedge $135 -1 $-1 $57 $136 $137 $138 reversed $98 $-1 #
loop $-1 -1 $-1 $139 $96 $140 #
vertex $-1 -1 $-1 $94 $141 #
straight-curve $-1 -1 $-1 -115.0958274981970249 -103.2356343855764891 -60 2.08884247393965472 9.779403720016148327 4.379057701015053347e-46 I I #
coedge $-1 -1 $-1 $137 $142 $60 $102 reversed $143 $-1 #
edge $-1 -1 $-1 $62 0 $144 4 $101 $145 forward @7 unknown #
point $-1 -1 $-1 -141.206358422442662 -225.4781808857782153 0 #
point $-1 -1 $-1 -141.206358422442662 -225.4781808857783858 -60 #
coedge $-1 -1 $-1 $146 $64 $147 $148 reversed $48 $-1 #
coedge $-1 -1 $-1 $65 $146 $96 $134 reversed $48 $-1 #
point $-1 -1 $-1 -137.0286734745633908 -205.9193734457458902 3.552713678800500929e-14 #
coedge $-1 -1 $-1 $82 $147 $72 $109 reversed $79 $-1 #
edge $-1 -1 $-1 $110 -3.845395098162632336e-15 $112 1.999999999999994671 $72 $149 forward @7 unknown #
vertex $-1 -1 $-1 $83 $150 #
ellipse-curve $-1 -1 $-1 -52.22106184849152299 -244.4850930004034524 -4.601688613789260942e-29 -0.2088842473939646616 -0.9779403720016149881 -7.663350976776343357e-46 -24.44850930004037437 5.222106184849114818 2.284409704702512979e-29 1 I I #
vertex $-1 -1 $-1 $109 $151 #
ellipse-curve $-1 -1 $-1 -48.04337690061220201 -224.926285560371241 -1.184237892933500836e-14 -0.2088842473939654665 -0.9779403720016148771 -0 24.44850930004036726 -5.222106184849155674 6.573840876841771468e-31 1 I I #
DXID-attrib $-1 -1 $-1 $-1 $78 @10 ASM ENTITY @1 6 #
face $152 -1 $-1 $153 $154 $5 $-1 $155 forward single #
plane-surface $-1 -1 $-1 36.76423472545963023 -263.4920051150287463 -60 0.9779403720016147661 -0.208884247393965411 -4.437342591868191405e-31 1.236843205004151984e-15 5.790570227768978e-15 10 reverse_v I I I I #
ATTRIB_CUSTOM-attrib $-1 -1 $-1 $-1 $82 @17 sketch_attrib_def 1 1 2 206 0 0 1 1 0 #
coedge $-1 -1 $-1 $147 $82 $89 $130 forward $79 $-1 #
straight-curve $-1 -1 $-1 -52.22106184849153721 -244.4850930004034808 -1.961817850054743899e-43 9.779403720016148327 -2.088842473939646283 -8.87468518373638141e-30 F 0 F 9.099255856655055652 #
coedge $-1 -1 $-1 $156 $157 $84 $121 reversed $158 $-1 #
edge $-1 -1 $-1 $144 -18.1985117133101042 $125 -0 $120 $159 forward @7 unknown #
coedge $-1 -1 $-1 $160 $85 $157 $161 forward $124 $-1 #
coedge $162 -1 $-1 $85 $160 $163 $164 forward $124 $-1 #
loop $-1 -1 $-1 $-1 $123 $165 #
vertex $-1 -1 $-1 $121 $166 #
straight-curve $-1 -1 $-1 36.76423472545963023 -263.4920051150286895 -60 -8.678912929980374885e-30 1.853781935463150026e-30 -10 I I #
coedge $-1 -1 $-1 $89 $88 $146 $167 forward $90 $-1 #
coedge $-1 -1 $-1 $163 $96 $88 $129 reversed $98 $-1 #
edge $-1 -1 $-1 $92 -12.49999999999998934 $168 -10.49999999999999289 $128 $169 forward @7 unknown #
edge $-1 -1 $-1 $91 0 $170 2.000000000000001776 $89 $171 forward @7 unknown #
point $-1 -1 $-1 36.76423472545964444 -263.4920051150287463 -8.075303113408330791e-29 #
point $-1 -1 $-1 36.76423472545963023 -263.4920051150286895 -60 #
straight-curve $-1 -1 $-1 -137.0286734745633623 -205.9193734457458618 0 1.236843205004152773e-15 5.790570227768978788e-15 10 I I #
edge $-1 -1 $-1 $99 -6.824441892491283745 $168 11.374069820818832 $96 $172 forward @7 unknown #
ATTRIB_CUSTOM-attrib $-1 -1 $173 $-1 $97 @17 sketch_attrib_def 1 1 2 165 0 0 2 2 0 #
coedge $174 -1 $-1 $97 $175 $176 $177 reversed $98 $-1 #
coedge $178 -1 $-1 $179 $101 $97 $138 forward $143 $-1 #
edge $-1 -1 $-1 $62 1.776356839400250465e-15 $180 18.1985117133101042 $97 $181 forward @7 unknown #
loop $-1 -1 $-1 $-1 $182 $140 #
face $183 -1 $-1 $-1 $98 $5 $-1 $184 reversed single #
point $-1 -1 $-1 -137.0286734745633908 -205.9193734457459186 -60 #
coedge $-1 -1 $-1 $101 $179 $156 $185 forward $143 $-1 #
loop $-1 -1 $-1 $-1 $137 $186 #
vertex $-1 -1 $-1 $102 $187 #
straight-curve $-1 -1 $-1 -141.206358422442662 -225.4781808857783858 -60 -8.678912929980374885e-30 1.853781935463150026e-30 -10 I I #
coedge $-1 -1 $-1 $106 $105 $127 $167 reversed $48 $-1 #
coedge $-1 -1 $-1 $108 $118 $105 $148 forward $79 $-1 #
edge $-1 -1 $-1 $170 -9.099255856655055652 $112 -2.499999999999999556 $105 $188 forward @7 unknown #
straight-curve $-1 -1 $-1 -27.77255254845117705 -249.7071991852526196 -2.21867129593411392e-29 2.088842473939646283 9.779403720016150103 -5.921189464667507334e-15 I I #
point $-1 -1 $-1 -27.77255254845117705 -249.707199185252648 3.061616997868360954e-15 #
point $-1 -1 $-1 -23.59486760057189159 -230.1483917452203798 -8.780761931466647008e-15 #
DXID-attrib $-1 -1 $-1 $-1 $115 @10 ASM ENTITY @1 7 #
face $189 -1 $-1 $190 $191 $5 $-1 $192 forward single #
loop $-1 -1 $-1 $-1 $193 $115 #
plane-surface $-1 -1 $-1 209.8086527609837617 163.5847637804568535 -60 0.530762292070476982 0.8475207309063854666 -3.035321098511700258e-31 -8.47520730906385289 5.307622920704769598 8.339476178955113272e-30 reverse_v I I I I #
coedge $-1 -1 $-1 $194 $120 $142 $185 reversed $158 $-1 #
coedge $-1 -1 $-1 $120 $195 $122 $161 reversed $158 $-1 #
loop $-1 -1 $-1 $-1 $195 $196 #
straight-curve $-1 -1 $-1 36.76423472545963023 -263.4920051150286895 -100 9.779403720016148327 -2.088842473939645838 -8.874685183736380008e-30 I I #
coedge $-1 -1 $-1 $123 $122 $197 $198 reversed $124 $-1 #
edge $-1 -1 $-1 $125 -18.1985117133101042 $199 -0 $157 $200 forward @7 unknown #
ATTRIB_CUSTOM-attrib $-1 -1 $201 $-1 $123 @17 sketch_attrib_def 1 1 2 163 0 0 2 2 0 #
coedge $202 -1 $-1 $203 $128 $123 $164 reversed $98 $-1 #
edge $-1 -1 $-1 $204 1.776356839400250465e-15 $92 18.1985117133101042 $163 $205 forward @7 unknown #
face $206 -1 $-1 $186 $124 $5 $-1 $207 forward single #
point $-1 -1 $-1 36.76423472545963023 -263.4920051150286895 -100 #
edge $-1 -1 $-1 $168 -6 $170 -0 $127 $208 forward @7 unknown #
vertex $-1 -1 $-1 $167 $209 #
straight-curve $-1 -1 $-1 62.87476564970531001 -141.2494586148269491 -60 2.088842473939654276 9.779403720016148327 8.758115402030106693e-46 I I #
vertex $-1 -1 $-1 $148 $210 #
straight-curve $-1 -1 $-1 36.76423472545964444 -263.4920051150287463 -8.075303113408330791e-29 2.088842473939654276 9.779403720016148327 8.758115402030106693e-46 I I #
straight-curve $-1 -1 $-1 -70.28970104410011288 -220.1745575317149246 -60 9.779403720016148327 -2.08884247393965472 -8.874685183736382811e-30 I I #
ATTRIB_CUSTOM-attrib $-1 -1 $-1 $135 $97 @17 sketch_attrib_def 1 1 2 165 0 0 1 2 0 #
ATTRIB_CUSTOM-attrib $-1 -1 $211 $-1 $136 @17 sketch_attrib_def 1 1 2 166 0 0 2 2 0 #
coedge $212 -1 $-1 $136 $213 $214 $215 reversed $98 $-1 #
coedge $216 -1 $-1 $217 $218 $136 $177 forward $219 $-1 #
edge $-1 -1 $-1 $180 1.776356839400250465e-15 $220 18.19851171331011841 $136 $221 forward @7 unknown #
ATTRIB_CUSTOM-attrib $-1 -1 $222 $-1 $137 @17 sketch_attrib_def 1 1 2 165 0 0 2 2 0 #
coedge $-1 -1 $-1 $142 $137 $218 $223 forward $143 $-1 #
vertex $-1 -1 $-1 $138 $224 #
straight-curve $-1 -1 $-1 -141.206358422442662 -225.4781808857783858 -60 -6.148775815900049402 7.886225711061195298 6.798403269431585135e-30 F 1.776356839400250465e-15 F 18.1985117133101042 #
coedge $-1 -1 $-1 $182 $182 $225 $226 reversed $139 $-1 #
DXID-attrib $-1 -1 $-1 $-1 $140 @10 ASM ENTITY @2 17 #
plane-surface $-1 -1 $-1 -4.085620730620576574e-13 7.105427357601003121e-14 -60 -8.678912929980375236e-31 1.853781935463150157e-31 -1 -9.127347423813132465 4.085526772034636878 8.678912929980374885e-30 reverse_v I I I I #
edge $-1 -1 $-1 $227 -18.1985117133101042 $144 -0 $156 $228 forward @7 unknown #
face $229 -1 $-1 $230 $143 $5 $-1 $231 forward single #
point $-1 -1 $-1 -141.206358422442662 -225.4781808857783858 -100 #
straight-curve $-1 -1 $-1 -48.04337690061223753 -224.9262855603711841 -1.751623080406021339e-43 -9.77940372001615188 2.088842473939646727 8.874685183736384212e-30 I I #
DXID-attrib $-1 -1 $-1 $-1 $153 @10 ASM ENTITY @1 8 #
face $232 -1 $-1 $233 $234 $5 $-1 $235 forward single #
loop $-1 -1 $-1 $-1 $236 $153 #
plane-surface $-1 -1 $-1 55.57249327425380869 260.1756016727358087 -60 -0.1381883203214228917 0.9904059713707019652 3.035321098511707265e-31 -9.904059713707020762 -1.381883203214229638 8.339476178955110469e-30 reverse_v I I I I #
coedge $237 -1 $-1 $238 $239 $240 $241 forward $154 $-1 #
coedge $-1 -1 $-1 $242 $156 $243 $244 reversed $158 $-1 #
coedge $-1 -1 $-1 $157 $245 $246 $247 reversed $158 $-1 #
face $248 -1 $-1 $140 $249 $5 $-1 $250 forward single #
coedge $-1 -1 $-1 $246 $251 $160 $198 forward $252 $-1 #
edge $-1 -1 $-1 $204 0 $199 4 $197 $253 forward @7 unknown #
vertex $-1 -1 $-1 $198 $254 #
straight-curve $-1 -1 $-1 197.5324338563626725 -178.2149917635117617 -100 8.834139937570816059 4.685933371636465061 -6.798403269431576728e-30 I I #
ATTRIB_CUSTOM-attrib $-1 -1 $-1 $162 $123 @17 sketch_attrib_def 1 1 2 163 0 0 1 2 0 #
ATTRIB_CUSTOM-attrib $-1 -1 $255 $-1 $163 @17 sketch_attrib_def 1 1 2 163 0 0 2 2 0 #
coedge $256 -1 $-1 $257 $163 $251 $258 reversed $98 $-1 #
vertex $-1 -1 $-1 $258 $259 #
straight-curve $-1 -1 $-1 197.5324338563626725 -178.2149917635117617 -60 -8.834139937570816059 -4.685933371636465061 6.798403269431576728e-30 F 1.776356839400250465e-15 F 18.1985117133101042 #
DXID-attrib $-1 -1 $-1 $-1 $165 @10 ASM ENTITY @2 11 #
plane-surface $-1 -1 $-1 36.76423472545963023 -263.4920051150286895 -60 0.4685933371636465394 -0.8834139937570817391 -5.704537675974459737e-31 8.834139937570816059 4.685933371636465061 -6.798403269431576728e-30 reverse_v I I I I #
straight-curve $-1 -1 $-1 40.94191967333897253 -243.9331976749963644 -8.075303113408331912e-29 1.236843205004152182e-15 5.790570227768978788e-15 10 I I #
point $-1 -1 $-1 40.94191967333895121 -243.9331976749963928 -60 #
point $-1 -1 $-1 40.94191967333898674 -243.9331976749963928 3.552713678800493356e-14 #
ATTRIB_CUSTOM-attrib $-1 -1 $-1 $174 $136 @17 sketch_attrib_def 1 1 2 166 0 0 1 2 0 #
ATTRIB_CUSTOM-attrib $-1 -1 $260 $-1 $175 @17 sketch_attrib_def 1 1 2 158 0 0 2 2 0 #
coedge $261 -1 $-1 $175 $240 $236 $262 reversed $98 $-1 #
coedge $263 -1 $-1 $264 $265 $175 $215 forward $266 $-1 #
edge $-1 -1 $-1 $220 0 $267 18.1985117133101113 $175 $268 forward @7 unknown #
ATTRIB_CUSTOM-attrib $-1 -1 $269 $-1 $176 @17 sketch_attrib_def 1 1 2 166 0 0 2 2 0 #
coedge $-1 -1 $-1 $243 $176 $265 $270 forward $219 $-1 #
coedge $-1 -1 $-1 $176 $243 $179 $223 reversed $219 $-1 #
loop $-1 -1 $-1 $-1 $176 $230 #
vertex $-1 -1 $-1 $177 $271 #
straight-curve $-1 -1 $-1 -253.1049271306176252 -81.96060990922389067 -60 0.3589326285069543987 9.993556292341235547 1.541072909523543375e-30 F 1.776356839400250465e-15 F 18.19851171331011841 #
ATTRIB_CUSTOM-attrib $-1 -1 $-1 $178 $137 @17 sketch_attrib_def 1 1 2 165 0 0 1 2 0 #
edge $-1 -1 $-1 $180 0 $227 4 $218 $272 forward @7 unknown #
point $-1 -1 $-1 -253.1049271306176252 -81.96060990922389067 -60 #
coedge $-1 -1 $-1 $225 $225 $182 $226 forward $273 $-1 #
edge $-1 -1 $-1 $274 -3.141592653589793116 $274 3.141592653589793116 $225 $275 forward @7 unknown #
vertex $-1 -1 $-1 $223 $276 #
straight-curve $-1 -1 $-1 -141.206358422442662 -225.4781808857783858 -100 6.148775815900049402 -7.886225711061195298 -6.798403269431585135e-30 I I #
DXID-attrib $-1 -1 $-1 $-1 $186 @10 ASM ENTITY @2 12 #
face $277 -1 $-1 $278 $219 $5 $-1 $279 forward single #
plane-surface $-1 -1 $-1 -253.1049271306176252 -81.96060990922389067 -60 -0.788622571106119663 -0.6148775815900051622 5.704537675974448352e-31 6.14877581590005029 -7.886225711061197075 -6.798403269431587938e-30 reverse_v I I I I #
DXID-attrib $-1 -1 $-1 $-1 $190 @10 ASM ENTITY @1 9 #
face $280 -1 $-1 $165 $252 $5 $-1 $281 forward single #
loop $-1 -1 $-1 $-1 $282 $190 #
plane-surface $-1 -1 $-1 265.8730118574077324 -9.549203126836527389 -60 0.9513633292367851269 0.3080711213072404586 -7.685702819705071838e-31 -3.080711213072403254 9.513633292367853045 4.437342591868195609e-30 reverse_v I I I I #
coedge $283 -1 $-1 $284 $285 $213 $262 forward $191 $-1 #
ATTRIB_CUSTOM-attrib $-1 -1 $286 $-1 $193 @17 sketch_attrib_def 1 1 2 160 0 0 2 2 0 #
coedge $-1 -1 $-1 $287 $193 $288 $289 forward $154 $-1 #
coedge $-1 -1 $-1 $193 $287 $284 $290 reversed $154 $-1 #
coedge $291 -1 $-1 $213 $257 $193 $241 reversed $98 $-1 #
edge $-1 -1 $-1 $292 1.776356839400250465e-15 $293 18.19851171331010775 $240 $294 forward @7 unknown #
coedge $-1 -1 $-1 $295 $194 $296 $297 reversed $158 $-1 #
coedge $-1 -1 $-1 $218 $217 $194 $244 forward $219 $-1 #
edge $-1 -1 $-1 $298 -18.19851171331011841 $227 -0 $194 $299 forward @7 unknown #
coedge $-1 -1 $-1 $195 $300 $301 $302 reversed $158 $-1 #
coedge $-1 -1 $-1 $303 $197 $195 $247 forward $252 $-1 #
edge $-1 -1 $-1 $199 -18.1985117133101042 $304 -0 $195 $305 forward @7 unknown #
DXID-attrib $-1 -1 $-1 $-1 $196 @10 ASM ENTITY @2 16 #
loop $-1 -1 $-1 $158 $306 $196 #
plane-surface $-1 -1 $-1 -4.085620730620576574e-13 7.105427357601003121e-14 -100 -8.678912929980375236e-31 1.853781935463150157e-31 -1 -9.127347423813132465 4.085526772034636878 8.678912929980374885e-30 reverse_v I I I I #
coedge $307 -1 $-1 $197 $303 $203 $258 forward $252 $-1 #
loop $-1 -1 $-1 $-1 $251 $233 #
straight-curve $-1 -1 $-1 197.5324338563626725 -178.2149917635117617 -60 -8.678912929980374885e-30 1.853781935463150026e-30 -10 I I #
point $-1 -1 $-1 197.5324338563626725 -178.2149917635117617 -100 #
ATTRIB_CUSTOM-attrib $-1 -1 $-1 $202 $163 @17 sketch_attrib_def 1 1 2 163 0 0 1 2 0 #
ATTRIB_CUSTOM-attrib $-1 -1 $308 $-1 $203 @17 sketch_attrib_def 1 1 2 162 0 0 2 2 0 #
coedge $309 -1 $-1 $240 $203 $282 $310 reversed $98 $-1 #
edge $-1 -1 $-1 $311 1.776356839400250465e-15 $204 18.19851171331010775 $203 $312 forward @7 unknown #
point $-1 -1 $-1 197.5324338563626725 -178.2149917635117617 -60 #
ATTRIB_CUSTOM-attrib $-1 -1 $-1 $212 $175 @17 sketch_attrib_def 1 1 2 158 0 0 1 2 0 #
ATTRIB_CUSTOM-attrib $-1 -1 $313 $-1 $213 @17 sketch_attrib_def 1 1 2 159 0 0 2 2 0 #
edge $-1 -1 $-1 $267 1.776356839400250465e-15 $292 18.19851171331010775 $213 $314 forward @7 unknown #
ATTRIB_CUSTOM-attrib $-1 -1 $315 $-1 $214 @17 sketch_attrib_def 1 1 2 158 0 0 2 2 0 #
coedge $-1 -1 $-1 $296 $214 $285 $316 forward $266 $-1 #
coedge $-1 -1 $-1 $214 $296 $217 $270 reversed $266 $-1 #
loop $-1 -1 $-1 $-1 $214 $278 #
vertex $-1 -1 $-1 $262 $317 #
straight-curve $-1 -1 $-1 -246.5728874864446141 99.90724133457214862 -60 6.698692506943747738 7.424790818428200545 -4.437342591868188603e-30 F 0 F 18.1985117133101113 #
ATTRIB_CUSTOM-attrib $-1 -1 $-1 $216 $176 @17 sketch_attrib_def 1 1 2 166 0 0 1 2 0 #
edge $-1 -1 $-1 $220 0 $298 4 $265 $318 forward @7 unknown #
point $-1 -1 $-1 -246.5728874864446141 99.90724133457213441 -60 #
straight-curve $-1 -1 $-1 -253.1049271306176252 -81.96060990922389067 -60 -8.678912929980374885e-30 1.853781935463150026e-30 -10 I I #
loop $-1 -1 $-1 $-1 $225 $319 #
vertex $-1 -1 $-1 $226 $320 #
ellipse-curve $-1 -1 $-1 -4.085620730620576574e-13 7.105427357601003121e-14 -60 8.678912929980375236e-31 -1.853781935463150157e-31 1 -54.76408454287879124 24.51316063220782127 5.207347757988225492e-29 1 I I #
point $-1 -1 $-1 -253.1049271306176252 -81.96060990922389067 -100 #
DXID-attrib $-1 -1 $-1 $-1 $230 @10 ASM ENTITY @2 13 #
face $321 -1 $-1 $319 $266 $5 $-1 $322 forward single #
plane-surface $-1 -1 $-1 -246.5728874864446141 99.90724133457213441 -60 -0.9993556292341235769 0.0358932628506953913 8.739858774486159995e-31 -0.3589326285069543987 -9.993556292341235547 -1.541072909523543375e-30 reverse_v I I I I #
DXID-attrib $-1 -1 $-1 $-1 $233 @10 ASM ENTITY @2 10 #
plane-surface $-1 -1 $-1 197.5324338563626725 -178.2149917635117617 -60 0.9268108914275430266 -0.375528389780697136 -8.739858774486163498e-31 3.755283897806970916 9.268108914275430266 -1.541072909523523757e-30 reverse_v I I I I #
coedge $323 -1 $-1 $324 $288 $257 $310 forward $234 $-1 #
ATTRIB_CUSTOM-attrib $-1 -1 $325 $-1 $236 @17 sketch_attrib_def 1 1 2 159 0 0 2 2 0 #
coedge $-1 -1 $-1 $326 $236 $239 $290 forward $191 $-1 #
coedge $-1 -1 $-1 $236 $326 $264 $316 reversed $191 $-1 #
ATTRIB_CUSTOM-attrib $-1 -1 $-1 $237 $193 @17 sketch_attrib_def 1 1 2 160 0 0 1 2 0 #
coedge $-1 -1 $-1 $239 $238 $300 $327 forward $154 $-1 #
coedge $-1 -1 $-1 $282 $301 $238 $289 reversed $234 $-1 #
edge $-1 -1 $-1 $293 0 $328 4 $288 $329 forward @7 unknown #
edge $-1 -1 $-1 $292 0 $330 4 $239 $331 forward @7 unknown #
ATTRIB_CUSTOM-attrib $-1 -1 $332 $-1 $240 @17 sketch_attrib_def 1 1 2 160 0 0 2 2 0 #
vertex $-1 -1 $-1 $241 $333 #
vertex $-1 -1 $-1 $241 $334 #
straight-curve $-1 -1 $-1 55.57249327425378738 260.1756016727358087 -60 8.47520730906385289 -5.30762292070476871 -8.33947617895511187e-30 F 1.776356839400250465e-15 F 18.19851171331010775 #
coedge $-1 -1 $-1 $300 $242 $326 $335 reversed $158 $-1 #
coedge $-1 -1 $-1 $265 $264 $242 $297 forward $266 $-1 #
edge $-1 -1 $-1 $336 -18.1985117133101113 $298 -0 $242 $337 forward @7 unknown #
vertex $-1 -1 $-1 $270 $338 #
straight-curve $-1 -1 $-1 -253.1049271306176252 -81.96060990922389067 -100 -0.3589326285069543987 -9.993556292341235547 -1.541072909523543375e-30 I I #
coedge $-1 -1 $-1 $245 $295 $287 $327 reversed $158 $-1 #
coedge $-1 -1 $-1 $288 $324 $245 $302 forward $234 $-1 #
edge $-1 -1 $-1 $304 -18.19851171331010775 $328 -0 $245 $339 forward @7 unknown #
coedge $-1 -1 $-1 $251 $246 $324 $340 reversed $252 $-1 #
vertex $-1 -1 $-1 $340 $341 #
straight-curve $-1 -1 $-1 265.8730118574077324 -9.549203126836509625 -100 3.755283897806970916 9.268108914275430266 -1.541072909523523757e-30 I I #
coedge $-1 -1 $-1 $342 $342 $343 $344 reversed $249 $-1 #
ATTRIB_CUSTOM-attrib $-1 -1 $345 $-1 $251 @17 sketch_attrib_def 1 1 2 162 0 0 2 2 0 #
ATTRIB_CUSTOM-attrib $-1 -1 $-1 $256 $203 @17 sketch_attrib_def 1 1 2 162 0 0 1 2 0 #
ATTRIB_CUSTOM-attrib $-1 -1 $346 $-1 $257 @17 sketch_attrib_def 1 1 2 161 0 0 2 2 0 #
edge $-1 -1 $-1 $293 0 $311 18.19851171331010775 $257 $347 forward @7 unknown #
vertex $-1 -1 $-1 $310 $348 #
straight-curve $-1 -1 $-1 265.8730118574077324 -9.549203126836509625 -60 -3.755283897806970916 -9.268108914275430266 1.541072909523523757e-30 F 1.776356839400250465e-15 F 18.19851171331010775 #
ATTRIB_CUSTOM-attrib $-1 -1 $-1 $261 $213 @17 sketch_attrib_def 1 1 2 159 0 0 1 2 0 #
straight-curve $-1 -1 $-1 -124.6666534349661646 235.0273840126151299 -60 9.904059713707020762 1.381883203214229638 -8.339476178955110469e-30 F 1.776356839400250465e-15 F 18.19851171331010775 #
ATTRIB_CUSTOM-attrib $-1 -1 $-1 $263 $214 @17 sketch_attrib_def 1 1 2 158 0 0 1 2 0 #
edge $-1 -1 $-1 $267 0 $336 4 $285 $349 forward @7 unknown #
point $-1 -1 $-1 -124.6666534349661646 235.0273840126151299 -60 #
straight-curve $-1 -1 $-1 -246.5728874864446141 99.90724133457213441 -60 -8.678912929980374885e-30 1.853781935463150026e-30 -10 I I #
face $350 -1 $-1 $196 $351 $5 $-1 $352 forward single #
point $-1 -1 $-1 54.76408454287838623 -24.51316063220774311 -60 #
DXID-attrib $-1 -1 $-1 $-1 $278 @10 ASM ENTITY @2 14 #
plane-surface $-1 -1 $-1 -185.6197730221438178 167.4673098345105871 -60 -0.7424790818428199657 0.6698692506943747516 7.685702819705076217e-31 -6.698692506943747738 -7.424790818428200545 4.437342591868188603e-30 reverse_v I I I I #
ATTRIB_CUSTOM-attrib $-1 -1 $353 $-1 $282 @17 sketch_attrib_def 1 1 2 161 0 0 2 2 0 #
coedge $-1 -1 $-1 $301 $282 $303 $340 forward $234 $-1 #
ATTRIB_CUSTOM-attrib $-1 -1 $-1 $283 $236 @17 sketch_attrib_def 1 1 2 159 0 0 1 2 0 #
coedge $-1 -1 $-1 $285 $284 $295 $335 forward $191 $-1 #
edge $-1 -1 $-1 $328 -18.1985117133101042 $330 -0 $300 $354 forward @7 unknown #
vertex $-1 -1 $-1 $289 $355 #
straight-curve $-1 -1 $-1 209.8086527609837617 163.5847637804568535 -60 -8.678912929980374885e-30 1.853781935463150026e-30 -10 I I #
vertex $-1 -1 $-1 $327 $356 #
straight-curve $-1 -1 $-1 55.57249327425378738 260.1756016727358087 -60 -8.678912929980374885e-30 1.853781935463150026e-30 -10 I I #
ATTRIB_CUSTOM-attrib $-1 -1 $-1 $291 $240 @17 sketch_attrib_def 1 1 2 160 0 0 1 2 0 #
point $-1 -1 $-1 55.57249327425378738 260.1756016727358087 -60 #
point $-1 -1 $-1 209.8086527609837617 163.5847637804568535 -60 #
edge $-1 -1 $-1 $330 -18.1985117133101042 $336 -0 $295 $357 forward @7 unknown #
vertex $-1 -1 $-1 $335 $358 #
straight-curve $-1 -1 $-1 -246.5728874864446141 99.90724133457214862 -100 -6.698692506943747738 -7.424790818428200545 4.437342591868188603e-30 I I #
point $-1 -1 $-1 -246.5728874864446141 99.90724133457213441 -100 #
straight-curve $-1 -1 $-1 209.8086527609837617 163.5847637804568535 -100 -3.080711213072403254 9.513633292367853045 4.437342591868195609e-30 I I #
edge $-1 -1 $-1 $311 0 $304 4 $303 $359 forward @7 unknown #
point $-1 -1 $-1 265.8730118574077324 -9.549203126836509625 -100 #
coedge $-1 -1 $-1 $306 $306 $360 $361 reversed $249 $-1 #
coedge $-1 -1 $-1 $360 $360 $306 $344 forward $351 $-1 #
edge $-1 -1 $-1 $362 -3.141592653589793116 $363 -0.4208677991217735781 $343 $364 forward @7 unknown #
ATTRIB_CUSTOM-attrib $-1 -1 $-1 $307 $251 @17 sketch_attrib_def 1 1 2 162 0 0 1 2 0 #
ATTRIB_CUSTOM-attrib $-1 -1 $-1 $309 $257 @17 sketch_attrib_def 1 1 2 161 0 0 1 2 0 #
straight-curve $-1 -1 $-1 209.8086527609837617 163.5847637804568535 -60 3.080711213072403254 -9.513633292367853045 -4.437342591868195609e-30 F 0 F 18.19851171331010775 #
point $-1 -1 $-1 265.8730118574077324 -9.549203126836509625 -60 #
straight-curve $-1 -1 $-1 -124.6666534349661646 235.0273840126151299 -60 -8.678912929980374885e-30 1.853781935463150026e-30 -10 I I #
DXID-attrib $-1 -1 $-1 $-1 $319 @10 ASM ENTITY @2 15 #
loop $-1 -1 $-1 $273 $343 $319 #
cone-surface $-1 -1 $-1 -4.085620730620576574e-13 7.105427357601003121e-14 -60 8.678912929980375236e-31 -1.853781935463150157e-31 1 -54.76408454287879124 24.51316063220782127 5.207347757988225492e-29 1 I I -0 -1 60 reversed I I I I #
ATTRIB_CUSTOM-attrib $-1 -1 $-1 $323 $282 @17 sketch_attrib_def 1 1 2 161 0 0 1 2 0 #
straight-curve $-1 -1 $-1 55.57249327425378738 260.1756016727358087 -100 -8.47520730906385289 5.30762292070476871 8.33947617895511187e-30 I I #
point $-1 -1 $-1 209.8086527609837617 163.5847637804568535 -100 #
point $-1 -1 $-1 55.57249327425378738 260.1756016727358087 -100 #
straight-curve $-1 -1 $-1 -124.6666534349661646 235.0273840126151299 -100 -9.904059713707020762 -1.381883203214229638 8.339476178955110469e-30 I I #
point $-1 -1 $-1 -124.6666534349661646 235.0273840126151299 -100 #
straight-curve $-1 -1 $-1 265.8730118574077324 -9.549203126836509625 -60 -8.678912929980374885e-30 1.853781935463150026e-30 -10 I I #
coedge $-1 -1 $-1 $343 $343 $342 $361 forward $351 $-1 #
edge $-1 -1 $-1 $363 -0.4208677991217735781 $362 3.141592653589793116 $360 $364 forward @7 unknown #
vertex $-1 -1 $-1 $344 $365 #
vertex $-1 -1 $-1 $344 $366 #
ellipse-curve $-1 -1 $-1 -4.085620730620576574e-13 7.105427357601003121e-14 -100 -8.678912929980375236e-31 1.853781935463150157e-31 -1 -54.76408454287879124 24.51316063220782127 5.207347757988225492e-29 1 I I #
point $-1 -1 $-1 54.76408454287838623 -24.51316063220774311 -100 #
point $-1 -1 $-1 -60 7.347880794884118356e-15 -100 #
End-of-ACIS-data 